<!-- icon666.com - MILLIONS vector ICONS FREE --><svg id="Layer_1" viewBox="0 0 512 512" xmlns="http://www.w3.org/2000/svg" data-name="Layer 1"><g fill="#ad5e73"><path d="m490.29 60.87-66.66 22.78-40.66-65.68a9.146 9.146 0 0 1 4.39.64z"></path><path d="m273.26 278.97 71.5 128.85a1.2 1.2 0 0 0 -1.6.61l-37 84.93a1.2 1.2 0 0 1 -2.28-.3z"></path><path d="m490.17 238.84-97.38 38.44a9.234 9.234 0 0 1 -9.82-1.96l41.26-57.94z"></path></g><path d="m21.71 60.87a9.21 9.21 0 0 0 -5.71 8.51v160.91a9.188 9.188 0 0 0 5.83 8.55l185.74-60.45v-54.01z" fill="#e87187"></path><path d="m134.78 20.73a9.193 9.193 0 0 0 -5.75-2.76l-40.66 65.68 119.2 40.73 5.54-22.61z" fill="#f789a1"></path><path d="m87.77 217.38 41.26 57.94a9.234 9.234 0 0 1 -9.82 1.96l-97.38-38.44z" fill="#ad5e73"></path><path d="m238.66 279.5-30.54 213.56a1.2 1.2 0 0 1 -2.28.3l-37-84.93z" fill="#ad5e73"></path><path d="m238.66 279.5-69.82 128.93a1.2 1.2 0 0 0 -1.6-.61l-76.41 35.09a1.189 1.189 0 0 1 -1.66-1.36l39.86-166.23 84.08-81.6h37.82z" fill="#e87187"></path><path d="m129.03 17.97-40.66 65.68-66.66-22.78 102.93-42.26a9.146 9.146 0 0 1 4.39-.64z" fill="#ad5e73"></path><path d="m211.87 193.72-4.3-15.33-119.8 38.99 41.26 57.94 84.08-81.6z" fill="#f789a1"></path><path d="m382.97 17.97a9.193 9.193 0 0 0 -5.75 2.76l-78.33 81.04 4.31 23.03 120.43-41.15z" fill="#f789a1"></path><path d="m422.83 441.55a1.189 1.189 0 0 1 -1.66 1.36l-76.41-35.09-71.5-128.85-12.19-85.25h37.82l84.08 81.6z" fill="#e87187"></path><path d="m490.29 60.87-187.09 63.93v53.18l186.97 60.86a9.188 9.188 0 0 0 5.83-8.55v-160.91a9.21 9.21 0 0 0 -5.71-8.51z" fill="#e87187"></path><path d="m303.2 177.98-4.31 15.74 84.08 81.6 41.26-57.94z" fill="#f789a1"></path><path d="m256.5 148.07a.114.114 0 0 0 -.03.08.122.122 0 0 0 .04.09l46.69 41.18v-83.35z" fill="#5fa8ed"></path><path d="m256.31 148.07-48.74-42v83.35l48.74-41.18a.1.1 0 0 0 .05-.08.138.138 0 0 0 -.05-.09z" fill="#5fa8ed"></path><path d="m256.51 148.24 46.69 41.18a4.3 4.3 0 0 1 -4.31 4.3h-87.02a4.293 4.293 0 0 1 -4.3-4.3l48.74-41.18a.1.1 0 0 0 .05-.08l.11-.01a.122.122 0 0 0 .04.09z" fill="#4689d3"></path><path d="m256.5 148.07a.114.114 0 0 0 -.03.08l-.11.01a.138.138 0 0 0 -.05-.09l-48.74-42a4.293 4.293 0 0 1 4.3-4.3h87.02a4.3 4.3 0 0 1 4.31 4.3z" fill="#4689d3"></path><path d="m123.081 266.966-76.227-36.266-25.024 8.14 97.38 38.44a9.234 9.234 0 0 0 9.82-1.96z" fill="#7a4656"></path><path d="m159.03 275.46 84.08-81.46h-30l-84.08 81.46-39.86 166.16a1.172 1.172 0 0 0 1.66 1.325l31.48-14.4z" fill="#b2576b"></path><path d="m129.03 17.97a9.146 9.146 0 0 0 -4.39.64l-102.93 42.26 25.841 8.83 72.22-36.775z" fill="#7a4656"></path><path d="m46 230.29v-160.91c0-.069.014-.136.015-.2l-24.3-8.3a9.21 9.21 0 0 0 -5.715 8.5v160.91a9.188 9.188 0 0 0 5.83 8.55l24.221-7.883c-.016-.222-.051-.441-.051-.667z" fill="#b5576b"></path><path d="m492.567 55.316-102.929-42.255a15.156 15.156 0 0 0 -16.735 3.5l-76.554 79.21h-80.7l-76.549-79.208a15.156 15.156 0 0 0 -16.735-3.5l-102.932 42.253a15.151 15.151 0 0 0 -9.433 14.059v160.914a15.118 15.118 0 0 0 9.625 14.136l97.381 38.439a15.14 15.14 0 0 0 3.815.946l-37.489 156.342a7.193 7.193 0 0 0 10 8.215l71.961-33.049 35.052 80.442a7.121 7.121 0 0 0 6.565 4.322 7.473 7.473 0 0 0 1-.067 7.132 7.132 0 0 0 6.157-6.11l41.933-293.271 41.938 293.272a7.132 7.132 0 0 0 6.157 6.109 7.473 7.473 0 0 0 1 .067 7.123 7.123 0 0 0 6.565-4.323l35.052-80.441 71.962 33.05a7.194 7.194 0 0 0 10-8.214l-37.495-156.344a15.2 15.2 0 0 0 3.816-.946l97.38-38.439a15.118 15.118 0 0 0 9.625-14.136v-160.914a15.151 15.151 0 0 0 -9.433-14.059zm-2.567 14.059v160.914a3.17 3.17 0 0 1 -.686 1.966l-180.114-58.629v-44.526l180.194-61.587a3.173 3.173 0 0 1 .606 1.862zm-107.861 196.776-74.127-71.943a10.221 10.221 0 0 0 1.188-4.784v-3.178l105.4 34.309zm-163.259-78.43 37.448-31.638 35.87 31.638zm-89.019 78.43-32.461-45.596 104.167-33.907v2.776a10.217 10.217 0 0 0 1.637 5.546zm-107.175-33.9a3.17 3.17 0 0 1 -.686-1.962v-160.914a3.173 3.173 0 0 1 .606-1.862l178.96 61.16v45.355zm16.076-171.9 76.382-31.351-29.356 47.424zm226.671 87.76 31.767-28.576v56.6zm-9.106-7.95-37.592-32.392h73.6zm-9.159 7.949-33.6 28.388v-57.341zm179.045-71.686-29.357-47.424 76.382 31.357zm-45.487-50.687 33.838 54.668-105.364 36.008v-10.346a10.227 10.227 0 0 0 -1.3-4.985zm-177.387 74.563a10.233 10.233 0 0 0 -1.773 5.767v9.924l-104.13-35.586 33.837-54.668zm-163.794 139.087 45.9-14.939 32.732 45.975zm94.909 39.029 81.084-78.695h28.471l-11.136 77.87-67.428 124.5a7.037 7.037 0 0 0 -.709.278l-67.43 30.968zm70.127 197.026-29.076-66.728 52.472-96.886zm102.838 0-23.608-165.094 53.519 96.452zm41.633-72.253-70.006-126.161-11.055-77.307h28.471l81.084 78.695 37.148 154.921zm44.776-132.765 32.732-45.976 45.895 14.939z" fill="#284268"></path></svg>